<svg width="24" height="20" viewBox="0 0 24 20" fill="none" xmlns="http://www.w3.org/2000/svg">
<path d="M22.8 3.2002H1.2C0.537375 3.2002 0 3.73757 0 4.4002V16.4002C0 17.0628 0.537375 17.6002 1.2 17.6002H7.20825C8.15287 17.6002 9.00938 17.0463 9.39675 16.1849L10.437 13.8734C10.7329 13.2157 11.3381 12.8002 12 12.8002C12.6619 12.8002 13.2671 13.2157 13.563 13.8734L14.6033 16.1849C14.9906 17.0463 15.8475 17.6002 16.7917 17.6002H22.8C23.4626 17.6002 24 17.0628 24 16.4002V4.4002C24 3.73757 23.4626 3.2002 22.8 3.2002ZM6 12.2002C4.67438 12.2002 3.6 11.1258 3.6 9.8002C3.6 8.47457 4.67438 7.4002 6 7.4002C7.32563 7.4002 8.4 8.47457 8.4 9.8002C8.4 11.1258 7.32563 12.2002 6 12.2002ZM18 12.2002C16.6744 12.2002 15.6 11.1258 15.6 9.8002C15.6 8.47457 16.6744 7.4002 18 7.4002C19.3256 7.4002 20.4 8.47457 20.4 9.8002C20.4 11.1258 19.3256 12.2002 18 12.2002Z" fill="#BDBDBD"/>
</svg>
